<?xml version="1.0" encoding="utf-8"?>
<!-- Generator: Adobe Illustrator 24.0.1, SVG Export Plug-In . SVG Version: 6.00 Build 0)  -->
<svg version="1.1" id="Layer_1" xmlns="http://www.w3.org/2000/svg" xmlns:xlink="http://www.w3.org/1999/xlink" x="0px" y="0px"
	 viewBox="0 0 376 203" style="enable-background:new 0 0 376 203;" xml:space="preserve">
<style type="text/css">
	.st0{fill:#091927;}
	.st1{fill:#FF717B;}
	.st2{fill:#FFFFFF;}
	.st3{fill:#FFDF60;}
	.st4{fill:#71D0F2;}
</style>
<rect class="st0" width="376" height="203"/>
<path class="st1" d="M42.6,61.7c-0.4-0.4-0.6-0.9-0.6-1.5v-6.4c0-0.6,0.2-1.2,0.6-1.6c0.4-0.4,0.9-0.6,1.5-0.6h8
	c0.6,0,1.2,0.2,1.6,0.6c0.4,0.4,0.6,0.9,0.6,1.6v6.4c0,0.6-0.2,1.1-0.7,1.5c-0.4,0.4-0.9,0.6-1.5,0.6h-8
	C43.5,62.3,43,62.1,42.6,61.7z"/>
<path class="st2" d="M42.9,114.4c-0.4-0.4-0.6-0.9-0.6-1.5V71.8c0-0.6,0.2-1.1,0.6-1.5c0.4-0.4,0.9-0.6,1.5-0.6h7.4
	c0.6,0,1.1,0.2,1.5,0.6c0.4,0.4,0.6,0.9,0.6,1.5v41.1c0,0.6-0.2,1.1-0.6,1.5c-0.4,0.4-0.9,0.6-1.5,0.6h-7.4
	C43.8,115,43.3,114.8,42.9,114.4z"/>
<path class="st2" d="M66,114.4c-0.4-0.4-0.6-0.9-0.6-1.5V71.8c0-0.6,0.2-1.1,0.6-1.5c0.4-0.4,0.9-0.6,1.5-0.6h7.2
	c0.6,0,1.1,0.2,1.5,0.6c0.4,0.4,0.6,0.9,0.6,1.5v3.6c3.5-4.4,8.4-6.5,14.5-6.5c5.3,0,9.6,1.7,12.7,5.2c3.1,3.5,4.7,8.3,4.7,14.4
	v24.4c0,0.6-0.2,1.1-0.6,1.5c-0.4,0.4-0.9,0.6-1.5,0.6h-7.8c-0.6,0-1.1-0.2-1.5-0.6c-0.4-0.4-0.6-0.9-0.6-1.5V88.9
	c0-3.4-0.8-6-2.5-7.9c-1.7-1.9-4-2.8-7.1-2.8c-3,0-5.3,1-7.1,2.9c-1.8,1.9-2.7,4.5-2.7,7.8v23.9c0,0.6-0.2,1.1-0.6,1.5
	c-0.4,0.4-0.9,0.6-1.5,0.6h-7.7C66.9,115,66.4,114.8,66,114.4z"/>
<path class="st2" d="M128.6,113.5c-3.7-1.6-6.5-3.6-8.4-6.2c-1.9-2.6-2.9-5.3-3-8.4c0-0.5,0.2-0.9,0.5-1.3c0.3-0.4,0.8-0.6,1.3-0.6
	h7.9c0.6,0,1.2,0.1,1.6,0.4c0.4,0.3,0.8,0.7,1.1,1.2c0.6,2,1.9,3.6,4,5c2.1,1.3,4.9,2,8.5,2c4.1,0,7.1-0.7,9.2-2
	c2.1-1.4,3.1-3.2,3.1-5.6c0-1.6-0.5-2.9-1.6-3.9s-2.6-2-4.7-2.7c-2.1-0.8-5.3-1.7-9.4-2.8c-6.8-1.6-11.9-3.8-15.1-6.4
	c-3.2-2.7-4.8-6.5-4.8-11.5c0-3.4,0.9-6.4,2.8-9c1.9-2.6,4.5-4.7,8-6.2c3.5-1.5,7.5-2.3,12-2.3c4.8,0,9,0.8,12.5,2.5
	c3.5,1.7,6.2,3.8,8,6.3s2.8,5,2.9,7.5c0,0.5-0.2,0.9-0.5,1.3c-0.3,0.4-0.8,0.6-1.3,0.6h-8.3c-1.3,0-2.1-0.5-2.6-1.6
	c-0.3-1.9-1.4-3.4-3.4-4.7c-2-1.2-4.4-1.9-7.3-1.9c-3.2,0-5.7,0.6-7.5,1.8c-1.8,1.2-2.7,3-2.7,5.3c0,1.6,0.5,2.9,1.4,3.9
	c0.9,1,2.4,2,4.3,2.7c2,0.8,4.8,1.7,8.6,2.7c5.2,1.2,9.3,2.5,12.3,3.9c3,1.5,5.3,3.3,6.7,5.5c1.4,2.2,2.2,5,2.2,8.4
	c0,3.8-1,7-3.1,9.8c-2.1,2.8-5,4.9-8.7,6.3s-8.1,2.2-13,2.2C136.8,115.8,132.3,115,128.6,113.5z"/>
<path class="st3" d="M175.9,61.7c-0.4-0.4-0.6-0.9-0.6-1.5v-6.4c0-0.6,0.2-1.2,0.6-1.6c0.4-0.4,0.9-0.6,1.5-0.6h8
	c0.6,0,1.2,0.2,1.6,0.6c0.4,0.4,0.6,0.9,0.6,1.6v6.4c0,0.6-0.2,1.1-0.7,1.5c-0.4,0.4-0.9,0.6-1.5,0.6h-8
	C176.8,62.3,176.3,62.1,175.9,61.7z"/>
<path class="st4" d="M343.9,114.8c-0.4-0.4-0.5-0.9-0.5-1.5V107c0-0.6,0.2-1.2,0.5-1.6c0.4-0.4,0.8-0.6,1.3-0.6h7.2
	c0.6,0,1,0.2,1.4,0.6c0.4,0.4,0.5,0.9,0.5,1.6v6.3c0,0.6-0.2,1.1-0.6,1.5c-0.4,0.4-0.8,0.6-1.4,0.6h-7.2
	C344.7,115.4,344.2,115.2,343.9,114.8z"/>
<path class="st2" d="M176.3,114.4c-0.4-0.4-0.6-0.9-0.6-1.5V71.8c0-0.6,0.2-1.1,0.6-1.5c0.4-0.4,0.9-0.6,1.5-0.6h7.4
	c0.6,0,1.1,0.2,1.5,0.6c0.4,0.4,0.6,0.9,0.6,1.5v41.1c0,0.6-0.2,1.1-0.6,1.5c-0.4,0.4-0.9,0.6-1.5,0.6h-7.4
	C177.2,115,176.7,114.8,176.3,114.4z"/>
<path class="st2" d="M206.6,131.5c-3.2-1.7-5.5-3.7-6.8-5.9c-1.3-2.2-2-4.1-2-5.7c0-0.6,0.2-1.1,0.6-1.4c0.4-0.4,0.9-0.6,1.5-0.6
	h7.7c0.5,0,1,0.1,1.3,0.4s0.7,0.7,0.9,1.4c0.6,1.5,1.6,2.8,2.9,3.9c1.3,1.1,3.2,1.6,5.9,1.6c3.5,0,6-0.8,7.7-2.3
	c1.6-1.5,2.4-4.2,2.4-8V109c-3.1,3.7-7.6,5.6-13.3,5.6c-6,0-10.6-1.8-13.6-5.5c-3-3.7-4.7-8.6-4.9-15l-0.1-2.3l0.1-2.3
	c0.2-6.2,1.9-11.2,5-15c3.1-3.8,7.6-5.7,13.6-5.7c3.1,0,5.8,0.6,8.1,1.7c2.3,1.2,4.2,2.7,5.7,4.7v-3.4c0-0.6,0.2-1.2,0.7-1.6
	c0.4-0.4,0.9-0.6,1.5-0.6h7.1c0.6,0,1.1,0.2,1.5,0.6c0.4,0.4,0.6,0.9,0.6,1.6l0.1,41.9c0,6.4-1.8,11.4-5.4,15
	c-3.6,3.5-9,5.3-16.3,5.3C214,134.1,209.8,133.2,206.6,131.5z M226.1,102.3c1.6-2.1,2.5-4.6,2.7-7.7c0.1-0.5,0.1-1.4,0.1-2.8
	s0-2.3-0.1-2.8c-0.2-3-1.1-5.6-2.7-7.7c-1.6-2.1-4.1-3.1-7.3-3.1c-6.3,0-9.6,3.8-9.9,11.5l-0.1,2.1c0,9,3.3,13.6,10,13.6
	C222.1,105.4,224.5,104.3,226.1,102.3z"/>
<path class="st2" d="M253,114.4c-0.4-0.4-0.6-0.9-0.6-1.5V55.3c0-0.6,0.2-1.1,0.6-1.5c0.4-0.4,0.9-0.6,1.5-0.6h7.9
	c0.6,0,1.1,0.2,1.5,0.6c0.4,0.4,0.6,0.9,0.6,1.5v19.8c3.5-4.2,8.1-6.3,14-6.3c5.3,0,9.6,1.8,12.8,5.3c3.2,3.5,4.8,8.3,4.8,14.3v24.4
	c0,0.6-0.2,1.1-0.6,1.5c-0.4,0.4-0.9,0.6-1.5,0.6h-7.9c-0.6,0-1.2-0.2-1.6-0.6c-0.4-0.4-0.6-0.9-0.6-1.5V88.9c0-3.4-0.8-6-2.5-7.9
	c-1.7-1.9-4-2.8-7.1-2.8c-3,0-5.3,1-7.1,2.9c-1.8,1.9-2.7,4.5-2.7,7.8v23.9c0,0.6-0.2,1.1-0.6,1.5c-0.4,0.4-0.9,0.6-1.5,0.6h-7.9
	C253.9,115,253.4,114.8,253,114.4z"/>
<path class="st2" d="M315.2,110.8c-2.7-2.8-4-6.8-4-12.1V79h-6.9c-0.6,0-1.1-0.2-1.5-0.6c-0.4-0.4-0.6-0.9-0.6-1.5v-5.1
	c0-0.6,0.2-1.1,0.6-1.5c0.4-0.4,0.9-0.6,1.5-0.6h6.9V55.3c0-0.6,0.2-1.1,0.6-1.5c0.4-0.4,0.9-0.6,1.5-0.6h7.2c0.6,0,1.1,0.2,1.5,0.6
	c0.4,0.4,0.6,0.9,0.6,1.5v14.4h10.9c0.6,0,1.1,0.2,1.5,0.6c0.4,0.4,0.6,0.9,0.6,1.5v5.1c0,0.6-0.2,1.1-0.6,1.5
	c-0.4,0.4-0.9,0.6-1.5,0.6h-10.9v18.7c0,2.5,0.4,4.4,1.3,5.7s2.3,1.9,4.3,1.9h6.1c0.6,0,1.1,0.2,1.5,0.6c0.4,0.4,0.6,0.9,0.6,1.5
	v5.5c0,0.6-0.2,1.1-0.6,1.5c-0.4,0.4-0.9,0.6-1.5,0.6h-7.1C321.9,115,317.9,113.6,315.2,110.8z"/>
</svg>
